<mxfile host="app.diagrams.net" modified="2022-03-09T16:22:44.259Z" agent="5.0 (X11; Linux x86_64) AppleWebKit/537.36 (KHTML, like Gecko) Chrome/95.0.4638.54 Safari/537.36 Edg/95.0.1020.40" etag="vyCzXgRro7NkF5Le2kCx" version="17.0.0" type="github">
  <diagram id="XbYHDId6QQW5LhkTKkXW" name="Page-1">
    <mxGraphModel dx="1422" dy="763" grid="1" gridSize="10" guides="1" tooltips="1" connect="1" arrows="1" fold="1" page="1" pageScale="1" pageWidth="850" pageHeight="1100" math="0" shadow="0">
      <root>
        <mxCell id="0" />
        <mxCell id="1" parent="0" />
        <mxCell id="vQORHYDYE9qXVt88JkUZ-2" value="" style="edgeStyle=orthogonalEdgeStyle;rounded=0;orthogonalLoop=1;jettySize=auto;html=1;" edge="1" parent="1" source="qhwseymHXmRA8twH0Vjl-1" target="vQORHYDYE9qXVt88JkUZ-1">
          <mxGeometry relative="1" as="geometry" />
        </mxCell>
        <mxCell id="qhwseymHXmRA8twH0Vjl-1" value="cliente" style="rounded=0;whiteSpace=wrap;html=1;" parent="1" vertex="1">
          <mxGeometry x="140" y="140" width="120" height="60" as="geometry" />
        </mxCell>
        <mxCell id="vQORHYDYE9qXVt88JkUZ-1" value="id" style="ellipse;whiteSpace=wrap;html=1;rounded=0;" vertex="1" parent="1">
          <mxGeometry x="140" y="280" width="120" height="60" as="geometry" />
        </mxCell>
      </root>
    </mxGraphModel>
  </diagram>
</mxfile>
